<svg width="234" height="58" viewBox="0 0 234 58" fill="none" xmlns="http://www.w3.org/2000/svg">
<g clip-path="url(#clip0_236_32)">
<path d="M0.715 53L7.995 5.615H24.31L31.72 53H20.345L19.37 45.2H13L12.09 53H0.715ZM13.91 36.1H18.395L17.355 26.09L16.38 16.405H15.925L15.08 26.155L13.91 36.1ZM33.6852 53V5.615H44.2152C56.5652 5.615 62.6752 11.79 62.6752 29.34C62.6752 43.315 59.4252 53 44.2152 53H33.6852ZM45.3202 42.795H46.2952C50.3252 42.795 50.9752 38.245 50.9752 29.08C50.9752 18.94 49.8052 15.82 46.2952 15.82H45.3202V42.795ZM69.5551 53L62.6651 5.615H73.5201L76.1201 32.395L76.9651 42.21H77.4201L78.1351 32.46L80.8651 5.615H91.7201L84.7651 53H69.5551ZM102.432 53V35.255L93.0069 5.615H105.747L108.282 23.425H108.672L111.467 5.615H124.142L114.717 35.255V53H102.432ZM136.876 53.65C127.126 53.65 123.291 47.41 123.291 37.985H133.366C133.366 43.25 134.471 44.875 136.486 44.875C138.371 44.875 138.956 43.38 138.956 40.91C138.956 37.27 137.201 35.775 132.716 33.045C128.166 30.315 123.551 26.48 123.551 18.16C123.551 9.125 129.011 5.03 136.746 5.03C145.131 5.03 150.201 9.125 150.201 19.785H139.931C139.996 15.3 139.281 13.61 137.331 13.61C135.641 13.61 134.991 15.04 134.991 17.38C134.991 20.89 136.421 22.125 140.516 24.595C145.976 27.91 150.591 32.005 150.591 39.87C150.591 49.23 145.456 53.65 136.876 53.65ZM153.719 53V5.615H165.874V53H153.719ZM183.899 53.585C172.264 53.585 168.884 44.225 168.884 29.275C168.884 14.325 172.264 4.965 183.899 4.965C195.599 4.965 198.914 14.39 198.914 29.275C198.914 44.16 195.599 53.585 183.899 53.585ZM183.899 43.445C186.694 43.445 187.214 38.895 187.214 29.275C187.214 18.615 186.369 15.105 183.899 15.105C181.169 15.105 180.649 19.525 180.649 29.275C180.649 39.87 181.429 43.445 183.899 43.445ZM201.644 53V5.615H213.929L218.999 29.21H219.454L218.869 15.625V5.615H229.529V53H217.374L212.109 29.73H211.719L212.304 42.795V53H201.644Z" fill="white"/>
</g>
<defs>
<clipPath id="clip0_236_32">
<rect width="234" height="58" fill="white"/>
</clipPath>
</defs>
</svg>
