<svg width="256" height="256" viewBox="0 0 256 256" fill="none" xmlns="http://www.w3.org/2000/svg">
<rect width="256" height="256" rx="40" fill="black"/>
<path d="M84.4263 58.6627C112.799 67.27 128.795 96.5219 128.047 126.162L128.001 128L122.563 127.862C94.7993 127.162 68.046 111.892 59.0204 85.6262C49.9319 59.1775 56.3857 50.156 84.4263 58.6627Z" fill="white"/>
<path d="M197.337 84.4264C188.73 112.798 159.478 128.795 129.838 128.047L128 128L128.137 122.563C128.838 94.7991 144.108 68.0459 170.373 59.0203C196.822 49.9317 205.844 56.3856 197.337 84.4264Z" fill="white"/>
<path d="M171.574 197.337C143.202 188.73 127.205 159.478 127.953 129.838L128 128L133.437 128.137C161.201 128.838 187.954 144.108 196.98 170.373C206.068 196.822 199.614 205.844 171.574 197.337Z" fill="white"/>
<path d="M58.663 171.574C67.2703 143.202 96.5222 127.205 126.162 127.953L128 128L127.863 133.437C127.162 161.201 111.892 187.954 85.6265 196.98C59.1778 206.068 50.1562 199.614 58.663 171.574Z" fill="white"/>
</svg>
