<svg width="32" height="32" viewBox="0 0 32 32" fill="none" xmlns="http://www.w3.org/2000/svg">
<rect width="32" height="32" rx="8" fill="#0C0B0B"/>
<g clip-path="url(#clip0_236_27)">
<path d="M11.3522 8.60387C14.3786 9.52198 16.0848 12.6422 16.005 15.8037L16.0001 15.9998L15.4201 15.9852C12.4586 15.9104 9.60495 14.2816 8.64222 11.48C7.67278 8.65878 8.36119 7.69648 11.3522 8.60387Z" fill="white"/>
<path d="M23.3959 11.3522C22.4778 14.3785 19.3576 16.0848 16.1961 16.005L16 16.0001L16.0146 15.4201C16.0894 12.4586 17.7182 9.60495 20.5198 8.64222C23.341 7.67278 24.3033 8.36119 23.3959 11.3522Z" fill="white"/>
<path d="M20.6478 23.3959C17.6215 22.4778 15.9152 19.3576 15.995 16.1961L15.9999 16L16.5799 16.0147C19.5414 16.0894 22.3951 17.7182 23.3578 20.5198C24.3272 23.341 23.6388 24.3033 20.6478 23.3959Z" fill="white"/>
<path d="M8.60399 20.6477C9.5221 17.6213 12.6423 15.9151 15.8038 15.9949L15.9999 15.9998L15.9853 16.5798C15.9106 19.5413 14.2817 22.3949 11.4801 23.3577C8.6589 24.3271 7.69661 23.6387 8.60399 20.6477Z" fill="white"/>
</g>
<defs>
<clipPath id="clip0_236_27">
<rect width="16" height="16" fill="white" transform="translate(8 8)"/>
</clipPath>
</defs>
</svg>
