<svg width="211" height="58" viewBox="0 0 211 58" fill="none" xmlns="http://www.w3.org/2000/svg">
<g clip-path="url(#clip0_236_32)">
<path d="M0.715 53L7.995 5.615H24.31L31.72 53H20.345L19.37 45.2H13L12.09 53H0.715ZM13.91 36.1H18.395L17.355 26.09L16.38 16.405H15.925L15.08 26.155L13.91 36.1ZM46.93 53.65C37.18 53.65 33.345 47.41 33.345 37.985H43.42C43.42 43.25 44.525 44.875 46.54 44.875C48.425 44.875 49.01 43.38 49.01 40.91C49.01 37.27 47.255 35.775 42.77 33.045C38.22 30.315 33.605 26.48 33.605 18.16C33.605 9.125 39.065 5.03 46.8 5.03C55.185 5.03 60.255 9.125 60.255 19.785H49.985C50.05 15.3 49.335 13.61 47.385 13.61C45.695 13.61 45.045 15.04 45.045 17.38C45.045 20.89 46.475 22.125 50.57 24.595C56.03 27.91 60.645 32.005 60.645 39.87C60.645 49.23 55.51 53.65 46.93 53.65ZM67.3075 53V15.95H61.5875V5.615H85.3125V15.95H79.2675V53H67.3075ZM87.7673 53V5.615H100.832C109.802 5.615 115.847 8.8 115.847 19.395C115.847 25.57 113.702 29.405 110.387 30.575V31.03C114.027 31.68 115.132 35.905 115.132 40.585V48.19C115.132 50.205 115.327 51.635 115.587 53H103.822C103.432 51.7 103.302 49.75 103.302 48.905V41.885C103.302 39.61 103.237 36.88 101.027 36.88H99.4023V53H87.7673ZM99.4023 27.78H100.247C103.432 27.78 104.147 25.635 104.147 21.8C104.147 17.38 102.977 15.82 100.182 15.82H99.4023V27.78ZM124.014 53V35.255L114.589 5.615H127.329L129.864 23.425H130.254L133.049 5.615H145.724L136.299 35.255V53H124.014ZM158.699 53.585C147.064 53.585 143.684 44.225 143.684 29.275C143.684 14.325 147.064 4.965 158.699 4.965C170.399 4.965 173.714 14.39 173.714 29.275C173.714 44.16 170.399 53.585 158.699 53.585ZM158.699 43.445C161.494 43.445 162.014 38.895 162.014 29.275C162.014 18.615 161.169 15.105 158.699 15.105C155.969 15.105 155.449 19.525 155.449 29.275C155.449 39.87 156.229 43.445 158.699 43.445ZM176.444 53V5.615H188.729L193.799 29.21H194.254L193.669 15.625V5.615H204.329V53H192.174L186.909 29.73H186.519L187.104 42.795V53H176.444Z" fill="white"/>
</g>
<defs>
<clipPath id="clip0_236_32">
<rect width="211" height="58" fill="white"/>
</clipPath>
</defs>
</svg>
